<?xml version="1.0" encoding="UTF-8" standalone="no"?>
<!-- Created with Inkscape (http://www.inkscape.org/) -->

<svg
   xmlns:dc="http://purl.org/dc/elements/1.1/"
   xmlns:cc="http://creativecommons.org/ns#"
   xmlns:rdf="http://www.w3.org/1999/02/22-rdf-syntax-ns#"
   xmlns:svg="http://www.w3.org/2000/svg"
   xmlns="http://www.w3.org/2000/svg"
   xmlns:sodipodi="http://sodipodi.sourceforge.net/DTD/sodipodi-0.dtd"
   xmlns:inkscape="http://www.inkscape.org/namespaces/inkscape"
   width="55.528694mm"
   height="32.862976mm"
   viewBox="0 0 55.528694 32.862976"
   version="1.1"
   id="svg8"
   inkscape:version="0.92.3 (2405546, 2018-03-11)"
   sodipodi:docname="Logo.svg">
  <defs
     id="defs2" />
  <sodipodi:namedview
     id="base"
     pagecolor="#ffffff"
     bordercolor="#666666"
     borderopacity="1.0"
     inkscape:pageopacity="0.0"
     inkscape:pageshadow="2"
     inkscape:zoom="1.979899"
     inkscape:cx="-57.230871"
     inkscape:cy="3.9181514"
     inkscape:document-units="mm"
     inkscape:current-layer="layer1"
     showgrid="false"
     fit-margin-top="0"
     fit-margin-left="0"
     fit-margin-right="0"
     fit-margin-bottom="0"
     inkscape:window-width="1920"
     inkscape:window-height="1017"
     inkscape:window-x="-8"
     inkscape:window-y="-8"
     inkscape:window-maximized="1" />
  <metadata
     id="metadata5">
    <rdf:RDF>
      <cc:Work
         rdf:about="">
        <dc:format>image/svg+xml</dc:format>
        <dc:type
           rdf:resource="http://purl.org/dc/dcmitype/StillImage" />
        <dc:title></dc:title>
      </cc:Work>
    </rdf:RDF>
  </metadata>
  <g
     inkscape:label="Layer 1"
     inkscape:groupmode="layer"
     id="layer1"
     transform="translate(-47.29994,-163.63517)">
    <path
       sodipodi:type="star"
       style="opacity:1;fill:#ff0000;fill-opacity:1;stroke:none;stroke-width:0.29248768;stroke-miterlimit:4;stroke-dasharray:none;stroke-opacity:1"
       id="path4520-7"
       sodipodi:sides="12"
       sodipodi:cx="75.064285"
       sodipodi:cy="180.06667"
       sodipodi:r1="15.763408"
       sodipodi:r2="7.8817043"
       sodipodi:arg1="0.52359878"
       sodipodi:arg2="0.78539816"
       inkscape:flatsided="false"
       inkscape:rounded="0"
       inkscape:randomized="0"
       d="m 88.715797,187.94837 -8.078305,-2.3085 2.308497,8.07831 -5.841769,-6.03837 -2.039935,8.15026 -2.039935,-8.15026 -5.841769,6.03837 2.308498,-8.07831 -8.078305,2.3085 6.03837,-5.84177 -8.150266,-2.03993 8.150266,-2.03994 -6.03837,-5.84177 8.078305,2.3085 -2.308498,-8.07831 5.841769,6.03837 2.039935,-8.15026 2.039935,8.15026 5.841769,-6.03837 -2.308497,8.07831 8.078305,-2.3085 -6.03837,5.84177 8.150266,2.03994 -8.150266,2.03993 z"
       transform="matrix(1.0410227,-0.28165916,0.28165916,1.0410227,-53.796769,13.755715)" />
    <path
       sodipodi:type="star"
       style="opacity:1;fill:#ff7f2a;fill-opacity:1;stroke:none;stroke-width:0.28139961;stroke-miterlimit:4;stroke-dasharray:none;stroke-opacity:1"
       id="path4520"
       sodipodi:sides="12"
       sodipodi:cx="75.064285"
       sodipodi:cy="180.06667"
       sodipodi:r1="15.165824"
       sodipodi:r2="7.5829124"
       sodipodi:arg1="0.52359878"
       sodipodi:arg2="0.78539816"
       inkscape:flatsided="false"
       inkscape:rounded="0"
       inkscape:randomized="0"
       d="m 88.198274,187.64958 -7.77206,-2.22099 2.220983,7.77206 -5.62031,-5.80945 -1.962602,7.84129 -1.962602,-7.84129 -5.62031,5.80945 2.220983,-7.77206 -7.77206,2.22099 5.809458,-5.62031 -7.841293,-1.9626 7.841293,-1.96261 -5.809457,-5.62031 7.772059,2.22099 -2.220983,-7.77206 5.62031,5.80945 1.962602,-7.84129 1.962602,7.84129 5.62031,-5.80945 -2.220983,7.77206 7.77206,-2.22099 -5.809458,5.62031 7.841293,1.96261 -7.841293,1.9626 z" />
    <path
       sodipodi:type="star"
       style="opacity:1;fill:#ffff00;fill-opacity:1;stroke:none;stroke-width:1.12846613;stroke-miterlimit:4;stroke-dasharray:none;stroke-opacity:1"
       id="path4520-5"
       sodipodi:sides="12"
       sodipodi:cx="105"
       sodipodi:cy="148.5"
       sodipodi:r1="60.81786"
       sodipodi:r2="30.40893"
       sodipodi:arg1="0.52359878"
       sodipodi:arg2="0.78539816"
       inkscape:flatsided="false"
       inkscape:rounded="0"
       inkscape:randomized="0"
       d="m 157.66981,178.90893 -31.16745,-8.90657 8.90657,31.16745 L 112.87041,177.87277 105,209.31786 97.12959,177.87277 74.59107,201.16981 83.49764,170.00236 52.330188,178.90893 75.627229,156.37041 44.18214,148.5 75.627229,140.62959 52.330189,118.09107 83.497639,126.99764 74.59107,95.830188 97.12959,119.12723 105,87.68214 l 7.87041,31.44509 22.53852,-23.297041 -8.90657,31.167451 31.16745,-8.90657 -23.29704,22.53852 31.44509,7.87041 -31.44509,7.87041 z"
       transform="matrix(0.18944865,-0.05370578,0.05370578,0.18944865,47.196872,157.57265)" />
    <text
       xml:space="preserve"
       style="font-style:normal;font-variant:normal;font-weight:normal;font-stretch:normal;font-size:5.64444447px;line-height:1.25;font-family:'Sci Fied';-inkscape-font-specification:'Sci Fied';letter-spacing:0px;word-spacing:0px;fill:#000000;fill-opacity:1;stroke:#ffffff;stroke-width:0.26458332"
       x="47.244083"
       y="181.57185"
       id="text817"><tspan
         sodipodi:role="line"
         id="tspan815"
         x="47.244083"
         y="181.57185"
         style="font-style:normal;font-variant:normal;font-weight:normal;font-stretch:normal;font-family:'Sci Fied 2002';-inkscape-font-specification:'Sci Fied 2002, ';stroke:#ffffff;stroke-width:0.26458332">OpenMinesweeper</tspan></text>
  </g>
</svg>
